<mxfile host="app.diagrams.net" agent="Mozilla/5.0 (Macintosh; Intel Mac OS X 10_15_7) AppleWebKit/537.36 (KHTML, like Gecko) Chrome/136.0.0.0 Safari/537.36" version="27.0.6">
  <diagram name="Page-1" id="8psTu5joOEkHxSPbt8DS">
    <mxGraphModel dx="3530" dy="2843" grid="1" gridSize="10" guides="1" tooltips="1" connect="1" arrows="1" fold="1" page="1" pageScale="1" pageWidth="827" pageHeight="1169" math="0" shadow="0">
      <root>
        <mxCell id="0" />
        <mxCell id="1" parent="0" />
        <mxCell id="5wcGb58u3SQSDJ49Bvyi-1" value="&lt;font style=&quot;font-size: 18px;&quot;&gt;AXI STREAM&lt;/font&gt;&lt;div&gt;&lt;font size=&quot;3&quot;&gt;Interface&lt;/font&gt;&lt;/div&gt;&lt;div&gt;&lt;font size=&quot;3&quot;&gt;(Slave)&lt;/font&gt;&lt;/div&gt;" style="rounded=0;whiteSpace=wrap;html=1;" parent="1" vertex="1">
          <mxGeometry x="160" y="20" width="170" height="179.5" as="geometry" />
        </mxCell>
        <mxCell id="5wcGb58u3SQSDJ49Bvyi-8" value="&lt;font style=&quot;font-size: 24px;&quot;&gt;AXI MEM (Master)&lt;/font&gt;" style="whiteSpace=wrap;html=1;" parent="1" vertex="1">
          <mxGeometry x="100" y="-263.88" width="2100" height="60" as="geometry" />
        </mxCell>
        <mxCell id="5wcGb58u3SQSDJ49Bvyi-29" value="" style="endArrow=classic;html=1;rounded=0;strokeWidth=3;" parent="1" edge="1">
          <mxGeometry width="50" height="50" relative="1" as="geometry">
            <mxPoint x="1800" y="-200" as="sourcePoint" />
            <mxPoint x="1800" y="8" as="targetPoint" />
          </mxGeometry>
        </mxCell>
        <mxCell id="5wcGb58u3SQSDJ49Bvyi-28" value="&lt;font style=&quot;font-size: 18px;&quot;&gt;AXI STREAM&lt;/font&gt;&lt;div&gt;&lt;font size=&quot;3&quot;&gt;Interface&lt;/font&gt;&lt;/div&gt;&lt;div&gt;&lt;font size=&quot;3&quot;&gt;(Master)&lt;/font&gt;&lt;/div&gt;" style="rounded=0;whiteSpace=wrap;html=1;" parent="1" vertex="1">
          <mxGeometry x="2120" y="49.12999999999989" width="80" height="143.75" as="geometry" />
        </mxCell>
        <mxCell id="1Rf1SUsvrOOBmwsHc8l4-15" value="" style="swimlane;startSize=0;" parent="1" vertex="1">
          <mxGeometry x="90" y="-320" width="2140" height="870" as="geometry" />
        </mxCell>
        <mxCell id="1Rf1SUsvrOOBmwsHc8l4-16" value="&lt;font style=&quot;font-size: 36px;&quot;&gt;&lt;b&gt;Digital Video Motion Detector&lt;/b&gt;&lt;/font&gt;" style="text;html=1;align=center;verticalAlign=middle;whiteSpace=wrap;rounded=0;" parent="1Rf1SUsvrOOBmwsHc8l4-15" vertex="1">
          <mxGeometry x="1606" y="10" width="530" height="30" as="geometry" />
        </mxCell>
        <mxCell id="1Rf1SUsvrOOBmwsHc8l4-17" value="&lt;font style=&quot;font-size: 18px;&quot;&gt;AXI LITE&lt;/font&gt;&lt;div&gt;&lt;font size=&quot;3&quot;&gt;Interface&lt;/font&gt;&lt;/div&gt;&lt;div&gt;&lt;font size=&quot;3&quot;&gt;(Slave)&lt;/font&gt;&lt;/div&gt;" style="whiteSpace=wrap;html=1;" parent="1" vertex="1">
          <mxGeometry x="165" y="320" width="75" height="181" as="geometry" />
        </mxCell>
        <mxCell id="1Rf1SUsvrOOBmwsHc8l4-18" value="&lt;font style=&quot;font-size: 24px;&quot;&gt;Control&lt;/font&gt;" style="rounded=0;whiteSpace=wrap;html=1;" parent="1" vertex="1">
          <mxGeometry x="280" y="405.5" width="1920" height="60" as="geometry" />
        </mxCell>
        <mxCell id="1Rf1SUsvrOOBmwsHc8l4-19" value="" style="endArrow=classic;startArrow=classic;html=1;rounded=0;exitX=1.022;exitY=0.641;exitDx=0;exitDy=0;entryX=0;entryY=0.5;entryDx=0;entryDy=0;strokeWidth=3;exitPerimeter=0;" parent="1" source="1Rf1SUsvrOOBmwsHc8l4-17" target="1Rf1SUsvrOOBmwsHc8l4-18" edge="1">
          <mxGeometry width="50" height="50" relative="1" as="geometry">
            <mxPoint x="354" y="125.5" as="sourcePoint" />
            <mxPoint x="404" y="75.5" as="targetPoint" />
          </mxGeometry>
        </mxCell>
        <mxCell id="YUo0tV-gyAyulcyTNa2H-15" value="" style="endArrow=classic;startArrow=classic;html=1;rounded=0;exitX=0.5;exitY=1;exitDx=0;exitDy=0;strokeWidth=3;" parent="1" source="5wcGb58u3SQSDJ49Bvyi-28" edge="1">
          <mxGeometry width="50" height="50" relative="1" as="geometry">
            <mxPoint x="966" y="704.5000000000001" as="sourcePoint" />
            <mxPoint x="2160" y="405.5" as="targetPoint" />
          </mxGeometry>
        </mxCell>
        <mxCell id="Wih975mYUc9LBkL0XSU5-4" value="&lt;h3 class=&quot;&quot; data-end=&quot;190&quot; data-start=&quot;157&quot;&gt;&lt;strong data-end=&quot;190&quot; data-start=&quot;161&quot;&gt;&lt;font face=&quot;Times New Roman&quot; style=&quot;font-size: 36px;&quot;&gt;Step 1: Build Motion Map&lt;/font&gt;&lt;/strong&gt;&lt;/h3&gt;&lt;h3 class=&quot;&quot; data-end=&quot;190&quot; data-start=&quot;157&quot;&gt;&lt;font face=&quot;Times New Roman&quot; style=&quot;font-size: 24px;&quot;&gt;&lt;span style=&quot;font-weight: normal;&quot; data-end=&quot;190&quot; data-start=&quot;161&quot;&gt;1&lt;/span&gt;&lt;strong style=&quot;&quot; data-end=&quot;190&quot; data-start=&quot;161&quot;&gt;.&amp;nbsp;&lt;/strong&gt;&lt;span style=&quot;background-color: transparent; color: light-dark(rgb(0, 0, 0), rgb(255, 255, 255)); font-weight: normal;&quot;&gt;Receive a 32-bit RGB pixel via the &lt;/span&gt;&lt;span style=&quot;background-color: transparent; color: light-dark(rgb(0, 0, 0), rgb(255, 255, 255)); font-weight: normal;&quot; data-end=&quot;248&quot; data-start=&quot;228&quot;&gt;AXI Stream Slave&lt;/span&gt;&lt;span style=&quot;background-color: transparent; color: light-dark(rgb(0, 0, 0), rgb(255, 255, 255)); font-weight: normal;&quot;&gt; interface.&lt;/span&gt;&lt;/font&gt;&lt;/h3&gt;&lt;h3 class=&quot;&quot; data-end=&quot;190&quot; data-start=&quot;157&quot;&gt;&lt;font style=&quot;font-size: 24px;&quot; face=&quot;Times New Roman&quot;&gt;&lt;font style=&quot;background-color: transparent; color: light-dark(rgb(0, 0, 0), rgb(255, 255, 255)); font-weight: normal;&quot;&gt;2.&amp;nbsp;&lt;/font&gt;&lt;span style=&quot;background-color: transparent; color: light-dark(rgb(0, 0, 0), rgb(255, 255, 255)); font-weight: normal;&quot;&gt;Convert the RGB pixel to an 8-bit grayscale value.&lt;/span&gt;&lt;/font&gt;&lt;/h3&gt;&lt;div&gt;&lt;h3 class=&quot;&quot; data-end=&quot;377&quot; data-start=&quot;348&quot;&gt;&lt;font face=&quot;Times New Roman&quot; style=&quot;font-size: 24px;&quot;&gt;&lt;span style=&quot;background-color: transparent; color: light-dark(rgb(0, 0, 0), rgb(255, 255, 255)); font-weight: normal;&quot;&gt;3. Store the grayscale pixel into a&amp;nbsp;&lt;/span&gt;&lt;span style=&quot;background-color: transparent; color: light-dark(rgb(0, 0, 0), rgb(255, 255, 255)); font-weight: normal;&quot; data-end=&quot;569&quot; data-start=&quot;552&quot;&gt;frame buffer and the RBG pixel into memory.&lt;/span&gt;&lt;/font&gt;&lt;/h3&gt;&lt;/div&gt;&lt;div&gt;&lt;font style=&quot;font-size: 24px;&quot; face=&quot;Times New Roman&quot;&gt;&lt;font style=&quot;&quot;&gt;&lt;span style=&quot;background-color: transparent; color: light-dark(rgb(0, 0, 0), rgb(255, 255, 255)); font-weight: normal;&quot; data-end=&quot;569&quot; data-start=&quot;552&quot;&gt;5.&amp;nbsp;&lt;/span&gt;&lt;/font&gt;&lt;span style=&quot;background-color: transparent; color: light-dark(rgb(0, 0, 0), rgb(255, 255, 255));&quot;&gt;In parallel, the grayscale pixel is sent to:&lt;/span&gt;&lt;/font&gt;&lt;/div&gt;&lt;ul data-end=&quot;622&quot; data-start=&quot;429&quot;&gt;&lt;li class=&quot;&quot; data-end=&quot;528&quot; data-start=&quot;429&quot;&gt;&lt;p class=&quot;&quot; data-end=&quot;528&quot; data-start=&quot;431&quot;&gt;&lt;font face=&quot;Times New Roman&quot; style=&quot;font-size: 24px;&quot;&gt;The Motion Detector module, where it is compared against the previous frame at the same location.&lt;/font&gt;&lt;/p&gt;&lt;/li&gt;&lt;li class=&quot;&quot; data-end=&quot;622&quot; data-start=&quot;531&quot;&gt;&lt;p class=&quot;&quot; data-end=&quot;622&quot; data-start=&quot;533&quot;&gt;&lt;font style=&quot;font-size: 24px;&quot; face=&quot;Times New Roman&quot;&gt;The Sigma-Delta module, where it is used to update the background model and variance map.&lt;/font&gt;&lt;/p&gt;&lt;/li&gt;&lt;/ul&gt;" style="text;html=1;whiteSpace=wrap;overflow=hidden;rounded=0;" parent="1" vertex="1">
          <mxGeometry x="-46.5" y="950" width="972.5" height="480" as="geometry" />
        </mxCell>
        <mxCell id="Wih975mYUc9LBkL0XSU5-5" value="&lt;h3 class=&quot;&quot; data-end=&quot;199&quot; data-start=&quot;156&quot;&gt;&lt;strong data-end=&quot;199&quot; data-start=&quot;160&quot;&gt;&lt;font style=&quot;font-size: 36px;&quot; face=&quot;Times New Roman&quot;&gt;Stage 2: Post-Processing Motion Map&lt;/font&gt;&lt;/strong&gt;&lt;/h3&gt;&lt;h3 class=&quot;&quot; data-end=&quot;199&quot; data-start=&quot;156&quot;&gt;&lt;span style=&quot;font-weight: normal;&quot;&gt;&lt;font style=&quot;font-size: 24px;&quot; face=&quot;Times New Roman&quot;&gt;&lt;span style=&quot;background-color: transparent; color: light-dark(rgb(0, 0, 0), rgb(255, 255, 255));&quot;&gt;1.&amp;nbsp;&lt;/span&gt;&lt;span style=&quot;background-color: transparent; color: light-dark(rgb(0, 0, 0), rgb(255, 255, 255));&quot;&gt;Apply a &lt;/span&gt;&lt;span style=&quot;background-color: transparent; color: light-dark(rgb(0, 0, 0), rgb(255, 255, 255));&quot; data-end=&quot;239&quot; data-start=&quot;211&quot;&gt;3Ã—3 nearest neighbors filter&lt;/span&gt;&lt;/font&gt;&lt;/span&gt;&lt;/h3&gt;&lt;h3 class=&quot;&quot; data-end=&quot;199&quot; data-start=&quot;156&quot;&gt;&lt;span style=&quot;font-weight: normal;&quot;&gt;&lt;font style=&quot;font-size: 24px;&quot; face=&quot;Times New Roman&quot;&gt;&lt;span style=&quot;background-color: transparent; color: light-dark(rgb(0, 0, 0), rgb(255, 255, 255));&quot;&gt;2.&amp;nbsp;&lt;/span&gt;&lt;span style=&quot;background-color: transparent; color: light-dark(rgb(0, 0, 0), rgb(255, 255, 255));&quot;&gt;Detect &lt;/span&gt;&lt;span style=&quot;background-color: transparent; color: light-dark(rgb(0, 0, 0), rgb(255, 255, 255));&quot; data-end=&quot;387&quot; data-start=&quot;351&quot;&gt;connected motion regions (blobs)&lt;/span&gt;&lt;span style=&quot;background-color: transparent; color: light-dark(rgb(0, 0, 0), rgb(255, 255, 255));&quot;&gt; from the filtered map.&lt;/span&gt;&lt;/font&gt;&lt;/span&gt;&lt;/h3&gt;&lt;h3 class=&quot;&quot; data-end=&quot;199&quot; data-start=&quot;156&quot;&gt;&lt;span style=&quot;font-weight: normal;&quot;&gt;&lt;font style=&quot;font-size: 24px;&quot; face=&quot;Times New Roman&quot;&gt;&lt;span style=&quot;background-color: transparent; color: light-dark(rgb(0, 0, 0), rgb(255, 255, 255));&quot;&gt;3. For each blob, calculate and store its &lt;/span&gt;&lt;span style=&quot;background-color: transparent; color: light-dark(rgb(0, 0, 0), rgb(255, 255, 255));&quot; data-end=&quot;476&quot; data-start=&quot;452&quot;&gt;bounding box corners&lt;/span&gt;&lt;span style=&quot;background-color: transparent; color: light-dark(rgb(0, 0, 0), rgb(255, 255, 255));&quot;&gt; (top-left and bottom-right).&lt;/span&gt;&lt;/font&gt;&lt;/span&gt;&lt;/h3&gt;&lt;h3 class=&quot;&quot; data-end=&quot;377&quot; data-start=&quot;348&quot;&gt;&lt;div&gt;&lt;/div&gt;&lt;/h3&gt;&lt;h1 style=&quot;margin-top: 0px;&quot;&gt;&lt;ul data-end=&quot;907&quot; data-start=&quot;706&quot;&gt;&lt;br&gt;&lt;/ul&gt;&lt;/h1&gt;" style="text;html=1;whiteSpace=wrap;overflow=hidden;rounded=0;" parent="1" vertex="1">
          <mxGeometry x="1140" y="940" width="508" height="460" as="geometry" />
        </mxCell>
        <mxCell id="Wih975mYUc9LBkL0XSU5-10" value="&lt;h3 class=&quot;&quot; data-end=&quot;557&quot; data-start=&quot;512&quot;&gt;&lt;strong data-end=&quot;557&quot; data-start=&quot;516&quot;&gt;&lt;font style=&quot;font-size: 36px;&quot; face=&quot;Times New Roman&quot;&gt;Stage 3: Box Overlay and Final Output&lt;/font&gt;&lt;/strong&gt;&lt;/h3&gt;&lt;h3 class=&quot;&quot; data-end=&quot;557&quot; data-start=&quot;512&quot;&gt;&lt;font style=&quot;font-size: 24px;&quot;&gt;&lt;span style=&quot;font-family: &amp;quot;Times New Roman&amp;quot;; background-color: transparent; color: light-dark(rgb(0, 0, 0), rgb(255, 255, 255));&quot;&gt;1.&amp;nbsp;&lt;/span&gt;&lt;span style=&quot;font-family: &amp;quot;Times New Roman&amp;quot;; background-color: transparent; color: light-dark(rgb(0, 0, 0), rgb(255, 255, 255)); font-weight: normal;&quot;&gt;Filter the detected boxes by size, position, or proximity to remove false positives or irrelevant regions.&lt;/span&gt;&lt;/font&gt;&lt;/h3&gt;&lt;h3 class=&quot;&quot; data-end=&quot;557&quot; data-start=&quot;512&quot;&gt;&lt;font style=&quot;font-size: 24px; font-weight: normal;&quot;&gt;&lt;span style=&quot;background-color: transparent; color: light-dark(rgb(0, 0, 0), rgb(255, 255, 255)); font-family: &amp;quot;Times New Roman&amp;quot;;&quot;&gt;2. For each remaining box, draw a &lt;/span&gt;&lt;span style=&quot;background-color: transparent; color: light-dark(rgb(0, 0, 0), rgb(255, 255, 255)); font-family: &amp;quot;Times New Roman&amp;quot;;&quot; data-end=&quot;717&quot; data-start=&quot;701&quot;&gt;bounding box&lt;/span&gt;&lt;span style=&quot;background-color: transparent; color: light-dark(rgb(0, 0, 0), rgb(255, 255, 255)); font-family: &amp;quot;Times New Roman&amp;quot;;&quot;&gt; onto the frame (overlay).&lt;/span&gt;&lt;/font&gt;&lt;/h3&gt;&lt;h3 class=&quot;&quot; data-end=&quot;557&quot; data-start=&quot;512&quot;&gt;&lt;span style=&quot;font-weight: normal;&quot;&gt;&lt;font style=&quot;font-size: 24px;&quot;&gt;&lt;span style=&quot;background-color: transparent; color: light-dark(rgb(0, 0, 0), rgb(255, 255, 255)); font-family: &amp;quot;Times New Roman&amp;quot;;&quot;&gt;3. Output the modified frame through the &lt;/span&gt;&lt;span style=&quot;background-color: transparent; color: light-dark(rgb(0, 0, 0), rgb(255, 255, 255)); font-family: &amp;quot;Times New Roman&amp;quot;;&quot; data-end=&quot;815&quot; data-start=&quot;784&quot;&gt;AXI Stream Master interface&lt;/span&gt;&lt;span style=&quot;background-color: transparent; color: light-dark(rgb(0, 0, 0), rgb(255, 255, 255)); font-family: &amp;quot;Times New Roman&amp;quot;;&quot;&gt; with motion boxes marked.&lt;/span&gt;&lt;/font&gt;&lt;/span&gt;&lt;/h3&gt;" style="text;html=1;whiteSpace=wrap;overflow=hidden;rounded=0;" parent="1" vertex="1">
          <mxGeometry x="1790" y="940" width="630" height="420" as="geometry" />
        </mxCell>
        <mxCell id="dtxXoNMcvbrdOsO5oj5G-2" value="" style="edgeStyle=orthogonalEdgeStyle;rounded=0;orthogonalLoop=1;jettySize=auto;html=1;strokeWidth=3;exitX=1.008;exitY=0.565;exitDx=0;exitDy=0;exitPerimeter=0;" parent="1" source="5wcGb58u3SQSDJ49Bvyi-1" edge="1">
          <mxGeometry relative="1" as="geometry">
            <mxPoint x="560" y="121" as="targetPoint" />
            <mxPoint x="250" y="121" as="sourcePoint" />
          </mxGeometry>
        </mxCell>
        <mxCell id="dtxXoNMcvbrdOsO5oj5G-5" value="&lt;span style=&quot;font-size: 18px;&quot;&gt;Memory&lt;/span&gt;&lt;br&gt;&lt;div&gt;&lt;span style=&quot;font-size: 18px;&quot;&gt;Manager&lt;/span&gt;&lt;/div&gt;" style="rounded=0;whiteSpace=wrap;html=1;" parent="1" vertex="1">
          <mxGeometry x="329" y="-109.75" width="110" height="110" as="geometry" />
        </mxCell>
        <mxCell id="dtxXoNMcvbrdOsO5oj5G-6" value="" style="edgeStyle=orthogonalEdgeStyle;rounded=0;orthogonalLoop=1;jettySize=auto;html=1;strokeWidth=3;" parent="1" edge="1">
          <mxGeometry relative="1" as="geometry">
            <mxPoint x="363" y="-201" as="targetPoint" />
            <mxPoint x="362.89" y="-109.75" as="sourcePoint" />
          </mxGeometry>
        </mxCell>
        <mxCell id="XOc9_vDRdyOMPMZFaufi-3" value="" style="endArrow=classic;html=1;rounded=0;exitX=0;exitY=0.318;exitDx=0;exitDy=0;exitPerimeter=0;strokeWidth=3;" parent="1" edge="1">
          <mxGeometry width="50" height="50" relative="1" as="geometry">
            <mxPoint x="160" y="187.37" as="sourcePoint" />
            <mxPoint y="187.37" as="targetPoint" />
          </mxGeometry>
        </mxCell>
        <mxCell id="XOc9_vDRdyOMPMZFaufi-4" value="" style="endArrow=classic;html=1;rounded=0;strokeWidth=3;" parent="1" edge="1">
          <mxGeometry width="50" height="50" relative="1" as="geometry">
            <mxPoint y="157.37" as="sourcePoint" />
            <mxPoint x="160" y="157.37" as="targetPoint" />
          </mxGeometry>
        </mxCell>
        <mxCell id="XOc9_vDRdyOMPMZFaufi-8" value="[31:0] pixel" style="text;html=1;align=center;verticalAlign=middle;whiteSpace=wrap;rounded=0;" parent="1" vertex="1">
          <mxGeometry x="-1.5" y="90.87000000000002" width="70" height="30" as="geometry" />
        </mxCell>
        <mxCell id="XOc9_vDRdyOMPMZFaufi-9" value="valid" style="text;html=1;align=center;verticalAlign=middle;whiteSpace=wrap;rounded=0;" parent="1" vertex="1">
          <mxGeometry x="-10" y="60.87000000000001" width="70" height="30" as="geometry" />
        </mxCell>
        <mxCell id="XOc9_vDRdyOMPMZFaufi-10" value="last" style="text;html=1;align=center;verticalAlign=middle;whiteSpace=wrap;rounded=0;" parent="1" vertex="1">
          <mxGeometry x="-10" y="127.37" width="70" height="30" as="geometry" />
        </mxCell>
        <mxCell id="XOc9_vDRdyOMPMZFaufi-11" value="in_ready" style="text;html=1;align=center;verticalAlign=middle;resizable=0;points=[];autosize=1;strokeColor=none;fillColor=none;" parent="1" vertex="1">
          <mxGeometry x="9.5" y="157.37" width="70" height="30" as="geometry" />
        </mxCell>
        <mxCell id="XOc9_vDRdyOMPMZFaufi-34" value="clk" style="text;html=1;align=center;verticalAlign=middle;whiteSpace=wrap;rounded=0;" parent="1" vertex="1">
          <mxGeometry x="-10" y="14.370000000000001" width="70" height="30" as="geometry" />
        </mxCell>
        <mxCell id="XOc9_vDRdyOMPMZFaufi-36" value="rst" style="text;html=1;align=center;verticalAlign=middle;whiteSpace=wrap;rounded=0;" parent="1" vertex="1">
          <mxGeometry x="-10" y="37.37000000000001" width="70" height="30" as="geometry" />
        </mxCell>
        <mxCell id="XOc9_vDRdyOMPMZFaufi-41" value="[31:0] pixel" style="text;html=1;align=center;verticalAlign=middle;whiteSpace=wrap;rounded=0;" parent="1" vertex="1">
          <mxGeometry x="477" y="91" width="70" height="30" as="geometry" />
        </mxCell>
        <mxCell id="XOc9_vDRdyOMPMZFaufi-45" value="" style="edgeStyle=orthogonalEdgeStyle;rounded=0;orthogonalLoop=1;jettySize=auto;html=1;strokeWidth=3;" parent="1" edge="1">
          <mxGeometry relative="1" as="geometry">
            <mxPoint x="502" y="-387.88" as="targetPoint" />
            <mxPoint x="502" y="-259.38" as="sourcePoint" />
          </mxGeometry>
        </mxCell>
        <mxCell id="XOc9_vDRdyOMPMZFaufi-46" value="" style="edgeStyle=orthogonalEdgeStyle;rounded=0;orthogonalLoop=1;jettySize=auto;html=1;strokeWidth=3;" parent="1" edge="1">
          <mxGeometry relative="1" as="geometry">
            <mxPoint x="556" y="-261.38" as="targetPoint" />
            <mxPoint x="556" y="-384.88" as="sourcePoint" />
          </mxGeometry>
        </mxCell>
        <mxCell id="XOc9_vDRdyOMPMZFaufi-47" value="" style="edgeStyle=orthogonalEdgeStyle;rounded=0;orthogonalLoop=1;jettySize=auto;html=1;strokeWidth=3;" parent="1" edge="1">
          <mxGeometry relative="1" as="geometry">
            <mxPoint x="447" y="-387.88" as="targetPoint" />
            <mxPoint x="447" y="-259.38" as="sourcePoint" />
          </mxGeometry>
        </mxCell>
        <mxCell id="XOc9_vDRdyOMPMZFaufi-54" value="ARready" style="text;html=1;align=center;verticalAlign=middle;whiteSpace=wrap;rounded=0;" parent="1" vertex="1">
          <mxGeometry x="500" y="-368.63" width="60" height="30" as="geometry" />
        </mxCell>
        <mxCell id="XOc9_vDRdyOMPMZFaufi-55" value="[31:0] AWaddr" style="text;html=1;align=center;verticalAlign=middle;whiteSpace=wrap;rounded=0;" parent="1" vertex="1">
          <mxGeometry x="309" y="-165.5" width="60" height="30" as="geometry" />
        </mxCell>
        <mxCell id="XOc9_vDRdyOMPMZFaufi-56" value="ARvalid" style="text;html=1;align=center;verticalAlign=middle;resizable=0;points=[];autosize=1;strokeColor=none;fillColor=none;" parent="1" vertex="1">
          <mxGeometry x="445" y="-368.63" width="60" height="30" as="geometry" />
        </mxCell>
        <mxCell id="XOc9_vDRdyOMPMZFaufi-62" value="" style="edgeStyle=orthogonalEdgeStyle;rounded=0;orthogonalLoop=1;jettySize=auto;html=1;strokeWidth=3;" parent="1" edge="1">
          <mxGeometry relative="1" as="geometry">
            <mxPoint x="422.89" y="-203" as="targetPoint" />
            <mxPoint x="423" y="-111" as="sourcePoint" />
          </mxGeometry>
        </mxCell>
        <mxCell id="XOc9_vDRdyOMPMZFaufi-67" value="[31:0] ARaddr" style="text;html=1;align=center;verticalAlign=middle;whiteSpace=wrap;rounded=0;" parent="1" vertex="1">
          <mxGeometry x="369" y="-165.75" width="60" height="30" as="geometry" />
        </mxCell>
        <mxCell id="XOc9_vDRdyOMPMZFaufi-77" value="" style="edgeStyle=orthogonalEdgeStyle;rounded=0;orthogonalLoop=1;jettySize=auto;html=1;strokeWidth=3;" parent="1" edge="1">
          <mxGeometry relative="1" as="geometry">
            <mxPoint x="478" y="-200" as="targetPoint" />
            <mxPoint x="477.89" y="122.5" as="sourcePoint" />
          </mxGeometry>
        </mxCell>
        <mxCell id="XOc9_vDRdyOMPMZFaufi-78" value="[31:0] Rdata" style="text;html=1;align=center;verticalAlign=middle;whiteSpace=wrap;rounded=0;" parent="1" vertex="1">
          <mxGeometry x="1800" y="-109.75" width="60" height="30" as="geometry" />
        </mxCell>
        <mxCell id="XOc9_vDRdyOMPMZFaufi-80" value="[31:0] ARaddr" style="text;html=1;align=center;verticalAlign=middle;whiteSpace=wrap;rounded=0;" parent="1" vertex="1">
          <mxGeometry x="387" y="-368.63" width="60" height="30" as="geometry" />
        </mxCell>
        <mxCell id="XOc9_vDRdyOMPMZFaufi-82" value="" style="edgeStyle=orthogonalEdgeStyle;rounded=0;orthogonalLoop=1;jettySize=auto;html=1;strokeWidth=3;" parent="1" edge="1">
          <mxGeometry relative="1" as="geometry">
            <mxPoint x="825.62" y="-263.76" as="targetPoint" />
            <mxPoint x="825.62" y="-387.26" as="sourcePoint" />
          </mxGeometry>
        </mxCell>
        <mxCell id="XOc9_vDRdyOMPMZFaufi-84" value="Rready" style="text;html=1;align=center;verticalAlign=middle;whiteSpace=wrap;rounded=0;" parent="1" vertex="1">
          <mxGeometry x="827" y="-368.63" width="60" height="30" as="geometry" />
        </mxCell>
        <mxCell id="XOc9_vDRdyOMPMZFaufi-85" value="Rvalid" style="text;html=1;align=center;verticalAlign=middle;resizable=0;points=[];autosize=1;strokeColor=none;fillColor=none;" parent="1" vertex="1">
          <mxGeometry x="767" y="-366.13" width="60" height="30" as="geometry" />
        </mxCell>
        <mxCell id="XOc9_vDRdyOMPMZFaufi-86" value="[31:0] Rdata" style="text;html=1;align=center;verticalAlign=middle;whiteSpace=wrap;rounded=0;" parent="1" vertex="1">
          <mxGeometry x="720" y="-368.63" width="60" height="30" as="geometry" />
        </mxCell>
        <mxCell id="XOc9_vDRdyOMPMZFaufi-87" value="" style="edgeStyle=orthogonalEdgeStyle;rounded=0;orthogonalLoop=1;jettySize=auto;html=1;strokeWidth=3;" parent="1" edge="1">
          <mxGeometry relative="1" as="geometry">
            <mxPoint x="879" y="-390.26" as="targetPoint" />
            <mxPoint x="879" y="-261.76" as="sourcePoint" />
          </mxGeometry>
        </mxCell>
        <mxCell id="XOc9_vDRdyOMPMZFaufi-88" value="" style="edgeStyle=orthogonalEdgeStyle;rounded=0;orthogonalLoop=1;jettySize=auto;html=1;strokeWidth=3;" parent="1" edge="1">
          <mxGeometry relative="1" as="geometry">
            <mxPoint x="774" y="-263.76" as="targetPoint" />
            <mxPoint x="774" y="-387.26" as="sourcePoint" />
          </mxGeometry>
        </mxCell>
        <mxCell id="XOc9_vDRdyOMPMZFaufi-91" value="" style="edgeStyle=orthogonalEdgeStyle;rounded=0;orthogonalLoop=1;jettySize=auto;html=1;strokeWidth=3;" parent="1" edge="1">
          <mxGeometry relative="1" as="geometry">
            <mxPoint x="1183" y="-388.63" as="targetPoint" />
            <mxPoint x="1183" y="-260.13" as="sourcePoint" />
          </mxGeometry>
        </mxCell>
        <mxCell id="XOc9_vDRdyOMPMZFaufi-92" value="" style="edgeStyle=orthogonalEdgeStyle;rounded=0;orthogonalLoop=1;jettySize=auto;html=1;strokeWidth=3;" parent="1" edge="1">
          <mxGeometry relative="1" as="geometry">
            <mxPoint x="1237" y="-262.13" as="targetPoint" />
            <mxPoint x="1237" y="-385.63" as="sourcePoint" />
          </mxGeometry>
        </mxCell>
        <mxCell id="XOc9_vDRdyOMPMZFaufi-93" value="" style="edgeStyle=orthogonalEdgeStyle;rounded=0;orthogonalLoop=1;jettySize=auto;html=1;strokeWidth=3;" parent="1" edge="1">
          <mxGeometry relative="1" as="geometry">
            <mxPoint x="1128" y="-388.63" as="targetPoint" />
            <mxPoint x="1128" y="-260.13" as="sourcePoint" />
          </mxGeometry>
        </mxCell>
        <mxCell id="XOc9_vDRdyOMPMZFaufi-94" value="AWready" style="text;html=1;align=center;verticalAlign=middle;whiteSpace=wrap;rounded=0;" parent="1" vertex="1">
          <mxGeometry x="1180" y="-368.63" width="60" height="30" as="geometry" />
        </mxCell>
        <mxCell id="XOc9_vDRdyOMPMZFaufi-95" value="AWvalid" style="text;html=1;align=center;verticalAlign=middle;resizable=0;points=[];autosize=1;strokeColor=none;fillColor=none;" parent="1" vertex="1">
          <mxGeometry x="1123" y="-366.13" width="70" height="30" as="geometry" />
        </mxCell>
        <mxCell id="XOc9_vDRdyOMPMZFaufi-96" value="[31:0] AWaddr" style="text;html=1;align=center;verticalAlign=middle;whiteSpace=wrap;rounded=0;" parent="1" vertex="1">
          <mxGeometry x="1072" y="-366.13" width="60" height="30" as="geometry" />
        </mxCell>
        <mxCell id="XOc9_vDRdyOMPMZFaufi-97" value="" style="edgeStyle=orthogonalEdgeStyle;rounded=0;orthogonalLoop=1;jettySize=auto;html=1;strokeWidth=3;" parent="1" edge="1">
          <mxGeometry relative="1" as="geometry">
            <mxPoint x="1535" y="-394.01" as="targetPoint" />
            <mxPoint x="1535" y="-265.51" as="sourcePoint" />
          </mxGeometry>
        </mxCell>
        <mxCell id="XOc9_vDRdyOMPMZFaufi-98" value="" style="edgeStyle=orthogonalEdgeStyle;rounded=0;orthogonalLoop=1;jettySize=auto;html=1;strokeWidth=3;" parent="1" edge="1">
          <mxGeometry relative="1" as="geometry">
            <mxPoint x="1589" y="-267.51" as="targetPoint" />
            <mxPoint x="1589" y="-391.01" as="sourcePoint" />
          </mxGeometry>
        </mxCell>
        <mxCell id="XOc9_vDRdyOMPMZFaufi-99" value="" style="edgeStyle=orthogonalEdgeStyle;rounded=0;orthogonalLoop=1;jettySize=auto;html=1;strokeWidth=3;" parent="1" edge="1">
          <mxGeometry relative="1" as="geometry">
            <mxPoint x="1480" y="-394.01" as="targetPoint" />
            <mxPoint x="1480" y="-265.51" as="sourcePoint" />
          </mxGeometry>
        </mxCell>
        <mxCell id="XOc9_vDRdyOMPMZFaufi-100" value="Wready" style="text;html=1;align=center;verticalAlign=middle;whiteSpace=wrap;rounded=0;" parent="1" vertex="1">
          <mxGeometry x="1530" y="-366.13" width="60" height="30" as="geometry" />
        </mxCell>
        <mxCell id="XOc9_vDRdyOMPMZFaufi-101" value="Wvalid" style="text;html=1;align=center;verticalAlign=middle;resizable=0;points=[];autosize=1;strokeColor=none;fillColor=none;" parent="1" vertex="1">
          <mxGeometry x="1480" y="-368.63" width="60" height="30" as="geometry" />
        </mxCell>
        <mxCell id="XOc9_vDRdyOMPMZFaufi-102" value="[31:0] Wdata" style="text;html=1;align=center;verticalAlign=middle;whiteSpace=wrap;rounded=0;" parent="1" vertex="1">
          <mxGeometry x="1420" y="-368.63" width="60" height="30" as="geometry" />
        </mxCell>
        <mxCell id="XOc9_vDRdyOMPMZFaufi-103" value="" style="edgeStyle=orthogonalEdgeStyle;rounded=0;orthogonalLoop=1;jettySize=auto;html=1;strokeWidth=3;" parent="1" edge="1">
          <mxGeometry relative="1" as="geometry">
            <mxPoint x="1643" y="-393.26" as="targetPoint" />
            <mxPoint x="1643" y="-264.76" as="sourcePoint" />
          </mxGeometry>
        </mxCell>
        <mxCell id="XOc9_vDRdyOMPMZFaufi-104" value="Wlast" style="text;html=1;align=center;verticalAlign=middle;whiteSpace=wrap;rounded=0;" parent="1" vertex="1">
          <mxGeometry x="1598" y="-368.63" width="50" height="30" as="geometry" />
        </mxCell>
        <mxCell id="XOc9_vDRdyOMPMZFaufi-107" value="" style="endArrow=classic;html=1;rounded=0;exitX=0;exitY=0.318;exitDx=0;exitDy=0;exitPerimeter=0;strokeWidth=3;" parent="1" edge="1">
          <mxGeometry width="50" height="50" relative="1" as="geometry">
            <mxPoint x="2199" y="165.99999999999997" as="sourcePoint" />
            <mxPoint x="2306" y="166.38" as="targetPoint" />
          </mxGeometry>
        </mxCell>
        <mxCell id="XOc9_vDRdyOMPMZFaufi-108" value="" style="endArrow=classic;html=1;rounded=0;exitX=0;exitY=0.318;exitDx=0;exitDy=0;exitPerimeter=0;strokeWidth=3;" parent="1" edge="1">
          <mxGeometry width="50" height="50" relative="1" as="geometry">
            <mxPoint x="2199" y="136" as="sourcePoint" />
            <mxPoint x="2306" y="136.38" as="targetPoint" />
          </mxGeometry>
        </mxCell>
        <mxCell id="XOc9_vDRdyOMPMZFaufi-109" value="" style="endArrow=classic;html=1;rounded=0;exitX=0;exitY=0.318;exitDx=0;exitDy=0;exitPerimeter=0;strokeWidth=3;" parent="1" edge="1">
          <mxGeometry width="50" height="50" relative="1" as="geometry">
            <mxPoint x="2199" y="105.99999999999999" as="sourcePoint" />
            <mxPoint x="2306" y="106.38" as="targetPoint" />
          </mxGeometry>
        </mxCell>
        <mxCell id="XOc9_vDRdyOMPMZFaufi-110" value="[31:0] pixel" style="text;html=1;align=center;verticalAlign=middle;whiteSpace=wrap;rounded=0;" parent="1" vertex="1">
          <mxGeometry x="2225.5" y="111.88" width="70" height="30" as="geometry" />
        </mxCell>
        <mxCell id="XOc9_vDRdyOMPMZFaufi-111" value="valid" style="text;html=1;align=center;verticalAlign=middle;whiteSpace=wrap;rounded=0;" parent="1" vertex="1">
          <mxGeometry x="2226" y="81.88" width="70" height="30" as="geometry" />
        </mxCell>
        <mxCell id="XOc9_vDRdyOMPMZFaufi-112" value="last" style="text;html=1;align=center;verticalAlign=middle;whiteSpace=wrap;rounded=0;" parent="1" vertex="1">
          <mxGeometry x="2220" y="143.88" width="70" height="30" as="geometry" />
        </mxCell>
        <mxCell id="XOc9_vDRdyOMPMZFaufi-116" value="" style="endArrow=classic;html=1;rounded=0;strokeWidth=3;" parent="1" edge="1">
          <mxGeometry width="50" height="50" relative="1" as="geometry">
            <mxPoint x="2310" y="79" as="sourcePoint" />
            <mxPoint x="2200" y="79" as="targetPoint" />
          </mxGeometry>
        </mxCell>
        <mxCell id="XOc9_vDRdyOMPMZFaufi-118" value="out_ready" style="text;html=1;align=center;verticalAlign=middle;resizable=0;points=[];autosize=1;strokeColor=none;fillColor=none;" parent="1" vertex="1">
          <mxGeometry x="2226" y="50.88" width="80" height="30" as="geometry" />
        </mxCell>
        <mxCell id="XOc9_vDRdyOMPMZFaufi-124" value="" style="endArrow=classic;html=1;rounded=0;strokeWidth=3;" parent="1" edge="1">
          <mxGeometry width="50" height="50" relative="1" as="geometry">
            <mxPoint y="124.60000000000001" as="sourcePoint" />
            <mxPoint x="160" y="124.60000000000001" as="targetPoint" />
          </mxGeometry>
        </mxCell>
        <mxCell id="XOc9_vDRdyOMPMZFaufi-125" value="" style="endArrow=classic;html=1;rounded=0;strokeWidth=3;" parent="1" edge="1">
          <mxGeometry width="50" height="50" relative="1" as="geometry">
            <mxPoint y="90.87" as="sourcePoint" />
            <mxPoint x="160" y="90.87" as="targetPoint" />
          </mxGeometry>
        </mxCell>
        <mxCell id="XOc9_vDRdyOMPMZFaufi-126" value="" style="endArrow=classic;html=1;rounded=0;strokeWidth=3;" parent="1" edge="1">
          <mxGeometry width="50" height="50" relative="1" as="geometry">
            <mxPoint x="-0.5" y="64.37" as="sourcePoint" />
            <mxPoint x="159.5" y="64.37" as="targetPoint" />
          </mxGeometry>
        </mxCell>
        <mxCell id="XOc9_vDRdyOMPMZFaufi-127" value="" style="endArrow=classic;html=1;rounded=0;strokeWidth=3;" parent="1" edge="1">
          <mxGeometry width="50" height="50" relative="1" as="geometry">
            <mxPoint y="39.6" as="sourcePoint" />
            <mxPoint x="160" y="39.6" as="targetPoint" />
          </mxGeometry>
        </mxCell>
        <mxCell id="XOc9_vDRdyOMPMZFaufi-128" value="" style="endArrow=classic;html=1;rounded=0;exitX=0;exitY=0.318;exitDx=0;exitDy=0;exitPerimeter=0;strokeWidth=3;" parent="1" edge="1">
          <mxGeometry width="50" height="50" relative="1" as="geometry">
            <mxPoint x="164" y="493" as="sourcePoint" />
            <mxPoint x="4" y="493" as="targetPoint" />
          </mxGeometry>
        </mxCell>
        <mxCell id="XOc9_vDRdyOMPMZFaufi-129" value="" style="endArrow=classic;html=1;rounded=0;strokeWidth=3;" parent="1" edge="1">
          <mxGeometry width="50" height="50" relative="1" as="geometry">
            <mxPoint x="4" y="463" as="sourcePoint" />
            <mxPoint x="164" y="463" as="targetPoint" />
          </mxGeometry>
        </mxCell>
        <mxCell id="XOc9_vDRdyOMPMZFaufi-130" value="[9:0] height" style="text;html=1;align=center;verticalAlign=middle;whiteSpace=wrap;rounded=0;" parent="1" vertex="1">
          <mxGeometry x="2.5" y="396.5" width="70" height="30" as="geometry" />
        </mxCell>
        <mxCell id="XOc9_vDRdyOMPMZFaufi-131" value="[10:0] width" style="text;html=1;align=center;verticalAlign=middle;whiteSpace=wrap;rounded=0;" parent="1" vertex="1">
          <mxGeometry x="-6" y="366.5" width="70" height="30" as="geometry" />
        </mxCell>
        <mxCell id="XOc9_vDRdyOMPMZFaufi-132" value="[7:0] threshold" style="text;html=1;align=center;verticalAlign=middle;whiteSpace=wrap;rounded=0;" parent="1" vertex="1">
          <mxGeometry x="-6" y="433" width="86" height="30" as="geometry" />
        </mxCell>
        <mxCell id="XOc9_vDRdyOMPMZFaufi-133" value="ready" style="text;html=1;align=center;verticalAlign=middle;resizable=0;points=[];autosize=1;strokeColor=none;fillColor=none;" parent="1" vertex="1">
          <mxGeometry x="13.5" y="463" width="50" height="30" as="geometry" />
        </mxCell>
        <mxCell id="XOc9_vDRdyOMPMZFaufi-134" value="clk" style="text;html=1;align=center;verticalAlign=middle;whiteSpace=wrap;rounded=0;" parent="1" vertex="1">
          <mxGeometry x="-6" y="321" width="70" height="30" as="geometry" />
        </mxCell>
        <mxCell id="XOc9_vDRdyOMPMZFaufi-135" value="valid" style="text;html=1;align=center;verticalAlign=middle;whiteSpace=wrap;rounded=0;" parent="1" vertex="1">
          <mxGeometry x="-6" y="343" width="70" height="30" as="geometry" />
        </mxCell>
        <mxCell id="XOc9_vDRdyOMPMZFaufi-136" value="" style="endArrow=classic;html=1;rounded=0;strokeWidth=3;" parent="1" edge="1">
          <mxGeometry width="50" height="50" relative="1" as="geometry">
            <mxPoint x="4" y="430.23" as="sourcePoint" />
            <mxPoint x="164" y="430.23" as="targetPoint" />
          </mxGeometry>
        </mxCell>
        <mxCell id="XOc9_vDRdyOMPMZFaufi-137" value="" style="endArrow=classic;html=1;rounded=0;strokeWidth=3;" parent="1" edge="1">
          <mxGeometry width="50" height="50" relative="1" as="geometry">
            <mxPoint x="4" y="396.5" as="sourcePoint" />
            <mxPoint x="164" y="396.5" as="targetPoint" />
          </mxGeometry>
        </mxCell>
        <mxCell id="XOc9_vDRdyOMPMZFaufi-138" value="" style="endArrow=classic;html=1;rounded=0;strokeWidth=3;" parent="1" edge="1">
          <mxGeometry width="50" height="50" relative="1" as="geometry">
            <mxPoint x="3.5" y="370" as="sourcePoint" />
            <mxPoint x="163.5" y="370" as="targetPoint" />
          </mxGeometry>
        </mxCell>
        <mxCell id="XOc9_vDRdyOMPMZFaufi-139" value="" style="endArrow=classic;html=1;rounded=0;strokeWidth=3;" parent="1" edge="1">
          <mxGeometry width="50" height="50" relative="1" as="geometry">
            <mxPoint x="4" y="346.23" as="sourcePoint" />
            <mxPoint x="164" y="346.23" as="targetPoint" />
          </mxGeometry>
        </mxCell>
        <mxCell id="VN-eHyt6kYfMbYtqsBXD-1" value="" style="edgeStyle=orthogonalEdgeStyle;rounded=0;orthogonalLoop=1;jettySize=auto;html=1;strokeWidth=3;entryX=0.112;entryY=0.993;entryDx=0;entryDy=0;entryPerimeter=0;" parent="1" edge="1" target="pzHLP5PFSMqDfCKK6MuQ-24">
          <mxGeometry relative="1" as="geometry">
            <mxPoint x="600" y="245.5" as="targetPoint" />
            <mxPoint x="600.3" y="405.5" as="sourcePoint" />
          </mxGeometry>
        </mxCell>
        <mxCell id="VN-eHyt6kYfMbYtqsBXD-14" value="" style="edgeStyle=orthogonalEdgeStyle;rounded=0;orthogonalLoop=1;jettySize=auto;html=1;strokeWidth=3;" parent="1" edge="1">
          <mxGeometry relative="1" as="geometry">
            <mxPoint x="1080" y="120" as="targetPoint" />
            <mxPoint x="918" y="119.95" as="sourcePoint" />
            <Array as="points">
              <mxPoint x="967" y="119.94999999999955" />
            </Array>
          </mxGeometry>
        </mxCell>
        <mxCell id="pzHLP5PFSMqDfCKK6MuQ-1" value="&lt;span style=&quot;background-color: transparent; color: light-dark(rgb(0, 0, 0), rgb(255, 255, 255)); font-size: 18px;&quot;&gt;Variation&lt;/span&gt;&lt;div&gt;&lt;span style=&quot;font-size: medium; background-color: transparent; color: light-dark(rgb(0, 0, 0), rgb(255, 255, 255));&quot;&gt;&amp;nbsp;Buffer&lt;/span&gt;&lt;/div&gt;" style="rounded=0;whiteSpace=wrap;html=1;" vertex="1" parent="1">
          <mxGeometry x="835" y="1765.5" width="120" height="100" as="geometry" />
        </mxCell>
        <mxCell id="pzHLP5PFSMqDfCKK6MuQ-2" value="&lt;font style=&quot;font-size: 18px;&quot;&gt;Motion Detector&lt;/font&gt;" style="whiteSpace=wrap;html=1;" vertex="1" parent="1">
          <mxGeometry x="1019" y="1660" width="91" height="580" as="geometry" />
        </mxCell>
        <mxCell id="pzHLP5PFSMqDfCKK6MuQ-3" value="" style="edgeStyle=orthogonalEdgeStyle;rounded=0;orthogonalLoop=1;jettySize=auto;html=1;strokeWidth=3;" edge="1" parent="1">
          <mxGeometry relative="1" as="geometry">
            <mxPoint x="1019" y="1697.5" as="targetPoint" />
            <mxPoint x="957" y="1697.5" as="sourcePoint" />
          </mxGeometry>
        </mxCell>
        <mxCell id="pzHLP5PFSMqDfCKK6MuQ-4" value="" style="edgeStyle=orthogonalEdgeStyle;rounded=0;orthogonalLoop=1;jettySize=auto;html=1;strokeWidth=3;" edge="1" parent="1">
          <mxGeometry relative="1" as="geometry">
            <mxPoint x="1019" y="1812.5" as="targetPoint" />
            <mxPoint x="955" y="1812.5" as="sourcePoint" />
          </mxGeometry>
        </mxCell>
        <mxCell id="pzHLP5PFSMqDfCKK6MuQ-5" value="" style="edgeStyle=orthogonalEdgeStyle;rounded=0;orthogonalLoop=1;jettySize=auto;html=1;strokeWidth=3;" edge="1" parent="1">
          <mxGeometry relative="1" as="geometry">
            <mxPoint x="1019" y="2062.75" as="targetPoint" />
            <mxPoint x="939" y="2062.8" as="sourcePoint" />
          </mxGeometry>
        </mxCell>
        <mxCell id="pzHLP5PFSMqDfCKK6MuQ-6" value="&lt;span style=&quot;font-size: 18px;&quot;&gt;Frame&amp;nbsp;&lt;/span&gt;&lt;div&gt;&lt;span style=&quot;font-size: 18px;&quot;&gt;Manager&lt;/span&gt;&lt;/div&gt;" style="rounded=0;whiteSpace=wrap;html=1;" vertex="1" parent="1">
          <mxGeometry x="549" y="1912.5" width="390" height="230" as="geometry" />
        </mxCell>
        <mxCell id="pzHLP5PFSMqDfCKK6MuQ-7" value="" style="edgeStyle=orthogonalEdgeStyle;rounded=0;orthogonalLoop=1;jettySize=auto;html=1;strokeWidth=3;" edge="1" parent="1">
          <mxGeometry relative="1" as="geometry">
            <mxPoint x="1019" y="2003.12" as="targetPoint" />
            <mxPoint x="939" y="2003.17" as="sourcePoint" />
          </mxGeometry>
        </mxCell>
        <mxCell id="pzHLP5PFSMqDfCKK6MuQ-8" value="" style="edgeStyle=orthogonalEdgeStyle;rounded=0;orthogonalLoop=1;jettySize=auto;html=1;strokeWidth=3;exitX=0.487;exitY=0;exitDx=0;exitDy=0;exitPerimeter=0;" edge="1" parent="1">
          <mxGeometry relative="1" as="geometry">
            <mxPoint x="675.5" y="1876.75" as="targetPoint" />
            <mxPoint x="675.4299999999998" y="1910.75" as="sourcePoint" />
          </mxGeometry>
        </mxCell>
        <mxCell id="pzHLP5PFSMqDfCKK6MuQ-9" value="[7:0] curr_pixel" style="text;html=1;align=center;verticalAlign=middle;resizable=0;points=[];autosize=1;strokeColor=none;fillColor=none;" vertex="1" parent="1">
          <mxGeometry x="929" y="1973.12" width="100" height="30" as="geometry" />
        </mxCell>
        <mxCell id="pzHLP5PFSMqDfCKK6MuQ-10" value="[7:0] prev_pixel" style="text;html=1;align=center;verticalAlign=middle;resizable=0;points=[];autosize=1;strokeColor=none;fillColor=none;" vertex="1" parent="1">
          <mxGeometry x="926" y="2025" width="100" height="30" as="geometry" />
        </mxCell>
        <mxCell id="pzHLP5PFSMqDfCKK6MuQ-11" value="[7:0] curr_pixel" style="text;html=1;align=center;verticalAlign=middle;resizable=0;points=[];autosize=1;strokeColor=none;fillColor=none;" vertex="1" parent="1">
          <mxGeometry x="579" y="1882.5" width="100" height="30" as="geometry" />
        </mxCell>
        <mxCell id="pzHLP5PFSMqDfCKK6MuQ-12" value="" style="edgeStyle=orthogonalEdgeStyle;rounded=0;orthogonalLoop=1;jettySize=auto;html=1;strokeWidth=3;" edge="1" parent="1">
          <mxGeometry relative="1" as="geometry">
            <mxPoint x="835" y="1673.08" as="targetPoint" />
            <mxPoint x="739" y="1673.5" as="sourcePoint" />
          </mxGeometry>
        </mxCell>
        <mxCell id="pzHLP5PFSMqDfCKK6MuQ-13" value="" style="edgeStyle=orthogonalEdgeStyle;rounded=0;orthogonalLoop=1;jettySize=auto;html=1;strokeWidth=3;" edge="1" parent="1">
          <mxGeometry relative="1" as="geometry">
            <mxPoint x="835" y="1799.5" as="targetPoint" />
            <mxPoint x="739" y="1799.92" as="sourcePoint" />
          </mxGeometry>
        </mxCell>
        <mxCell id="pzHLP5PFSMqDfCKK6MuQ-14" value="frame_manager&lt;div&gt;enable&lt;/div&gt;" style="text;html=1;align=center;verticalAlign=middle;resizable=0;points=[];autosize=1;strokeColor=none;fillColor=none;" vertex="1" parent="1">
          <mxGeometry x="789" y="2200" width="110" height="40" as="geometry" />
        </mxCell>
        <mxCell id="pzHLP5PFSMqDfCKK6MuQ-15" value="" style="edgeStyle=orthogonalEdgeStyle;rounded=0;orthogonalLoop=1;jettySize=auto;html=1;strokeWidth=3;exitX=-0.008;exitY=0.88;exitDx=0;exitDy=0;exitPerimeter=0;" edge="1" parent="1" source="pzHLP5PFSMqDfCKK6MuQ-1">
          <mxGeometry relative="1" as="geometry">
            <mxPoint x="735.5" y="1853.5" as="targetPoint" />
            <mxPoint x="829" y="1853.5" as="sourcePoint" />
          </mxGeometry>
        </mxCell>
        <mxCell id="pzHLP5PFSMqDfCKK6MuQ-16" value="" style="edgeStyle=orthogonalEdgeStyle;rounded=0;orthogonalLoop=1;jettySize=auto;html=1;strokeWidth=3;exitX=-0.008;exitY=0.88;exitDx=0;exitDy=0;exitPerimeter=0;" edge="1" parent="1">
          <mxGeometry relative="1" as="geometry">
            <mxPoint x="736.5" y="1736.34" as="targetPoint" />
            <mxPoint x="835" y="1736.34" as="sourcePoint" />
          </mxGeometry>
        </mxCell>
        <mxCell id="pzHLP5PFSMqDfCKK6MuQ-17" value="[7:0] background" style="text;html=1;align=center;verticalAlign=middle;whiteSpace=wrap;rounded=0;" vertex="1" parent="1">
          <mxGeometry x="754" y="1698" width="60" height="30" as="geometry" />
        </mxCell>
        <mxCell id="pzHLP5PFSMqDfCKK6MuQ-18" value="[7:0] variance_next" style="text;html=1;align=center;verticalAlign=middle;whiteSpace=wrap;rounded=0;" vertex="1" parent="1">
          <mxGeometry x="754" y="1765.5" width="60" height="30" as="geometry" />
        </mxCell>
        <mxCell id="pzHLP5PFSMqDfCKK6MuQ-19" value="[7:0] variance" style="text;html=1;align=center;verticalAlign=middle;whiteSpace=wrap;rounded=0;" vertex="1" parent="1">
          <mxGeometry x="757" y="1815.5" width="60" height="30" as="geometry" />
        </mxCell>
        <mxCell id="pzHLP5PFSMqDfCKK6MuQ-20" value="rotate" style="text;html=1;align=center;verticalAlign=middle;resizable=0;points=[];autosize=1;strokeColor=none;fillColor=none;" vertex="1" parent="1">
          <mxGeometry x="652" y="2215.5" width="50" height="30" as="geometry" />
        </mxCell>
        <mxCell id="pzHLP5PFSMqDfCKK6MuQ-21" value="&lt;span style=&quot;font-size: 18px;&quot;&gt;Background&lt;/span&gt;&lt;br&gt;&lt;div&gt;&lt;font size=&quot;3&quot;&gt;&amp;nbsp;Buffer&lt;/font&gt;&lt;/div&gt;" style="rounded=0;whiteSpace=wrap;html=1;" vertex="1" parent="1">
          <mxGeometry x="1749.5" y="1971.5" width="120" height="100" as="geometry" />
        </mxCell>
        <mxCell id="pzHLP5PFSMqDfCKK6MuQ-22" value="&lt;span style=&quot;font-size: 18px;&quot;&gt;Sigma-Delta&lt;/span&gt;&lt;div&gt;&lt;span style=&quot;font-size: 18px;&quot;&gt;Update&lt;/span&gt;&lt;/div&gt;" style="rounded=0;whiteSpace=wrap;html=1;" vertex="1" parent="1">
          <mxGeometry x="1530" y="1965.75" width="120" height="230" as="geometry" />
        </mxCell>
        <mxCell id="pzHLP5PFSMqDfCKK6MuQ-23" value="[7:0] background_next" style="text;html=1;align=center;verticalAlign=middle;whiteSpace=wrap;rounded=0;" vertex="1" parent="1">
          <mxGeometry x="1668.5" y="1960" width="60" height="30" as="geometry" />
        </mxCell>
        <mxCell id="pzHLP5PFSMqDfCKK6MuQ-24" value="&lt;font style=&quot;font-size: 24px;&quot;&gt;Motion Map&lt;/font&gt;&lt;div&gt;&lt;font style=&quot;font-size: 24px;&quot;&gt;Generator&lt;/font&gt;&lt;/div&gt;" style="rounded=0;whiteSpace=wrap;html=1;" vertex="1" parent="1">
          <mxGeometry x="560" y="11.5" width="358" height="210" as="geometry" />
        </mxCell>
        <mxCell id="pzHLP5PFSMqDfCKK6MuQ-25" value="mmg_enable" style="text;html=1;align=center;verticalAlign=middle;resizable=0;points=[];autosize=1;strokeColor=none;fillColor=none;" vertex="1" parent="1">
          <mxGeometry x="519" y="313" width="90" height="30" as="geometry" />
        </mxCell>
        <mxCell id="pzHLP5PFSMqDfCKK6MuQ-26" value="last_in_frame" style="text;html=1;align=center;verticalAlign=middle;resizable=0;points=[];autosize=1;strokeColor=none;fillColor=none;" vertex="1" parent="1">
          <mxGeometry x="601" y="313" width="100" height="30" as="geometry" />
        </mxCell>
        <mxCell id="pzHLP5PFSMqDfCKK6MuQ-29" value="wr_background" style="text;html=1;align=center;verticalAlign=middle;resizable=0;points=[];autosize=1;strokeColor=none;fillColor=none;" vertex="1" parent="1">
          <mxGeometry x="684" y="313" width="110" height="30" as="geometry" />
        </mxCell>
        <mxCell id="pzHLP5PFSMqDfCKK6MuQ-32" value="[7:0] threshold" style="text;html=1;align=center;verticalAlign=middle;resizable=0;points=[];autosize=1;strokeColor=none;fillColor=none;" vertex="1" parent="1">
          <mxGeometry x="787.5" y="313" width="100" height="30" as="geometry" />
        </mxCell>
        <mxCell id="pzHLP5PFSMqDfCKK6MuQ-33" value="" style="edgeStyle=orthogonalEdgeStyle;rounded=0;orthogonalLoop=1;jettySize=auto;html=1;strokeWidth=3;entryX=0.112;entryY=0.993;entryDx=0;entryDy=0;entryPerimeter=0;" edge="1" parent="1">
          <mxGeometry relative="1" as="geometry">
            <mxPoint x="690.5" y="220" as="targetPoint" />
            <mxPoint x="690.8" y="405.5" as="sourcePoint" />
          </mxGeometry>
        </mxCell>
        <mxCell id="pzHLP5PFSMqDfCKK6MuQ-34" value="" style="edgeStyle=orthogonalEdgeStyle;rounded=0;orthogonalLoop=1;jettySize=auto;html=1;strokeWidth=3;entryX=0.112;entryY=0.993;entryDx=0;entryDy=0;entryPerimeter=0;" edge="1" parent="1">
          <mxGeometry relative="1" as="geometry">
            <mxPoint x="786.59" y="220" as="targetPoint" />
            <mxPoint x="786.89" y="405.5" as="sourcePoint" />
          </mxGeometry>
        </mxCell>
        <mxCell id="pzHLP5PFSMqDfCKK6MuQ-35" value="" style="edgeStyle=orthogonalEdgeStyle;rounded=0;orthogonalLoop=1;jettySize=auto;html=1;strokeWidth=3;entryX=0.112;entryY=0.993;entryDx=0;entryDy=0;entryPerimeter=0;" edge="1" parent="1">
          <mxGeometry relative="1" as="geometry">
            <mxPoint x="880" y="220" as="targetPoint" />
            <mxPoint x="880.3" y="405.5" as="sourcePoint" />
          </mxGeometry>
        </mxCell>
        <mxCell id="pzHLP5PFSMqDfCKK6MuQ-36" value="&lt;span style=&quot;font-size: 24px;&quot;&gt;Bounding Box&lt;/span&gt;&lt;div&gt;&lt;span style=&quot;font-size: 24px;&quot;&gt;Generator&lt;/span&gt;&lt;/div&gt;" style="rounded=0;whiteSpace=wrap;html=1;" vertex="1" parent="1">
          <mxGeometry x="1080" y="8" width="358" height="210" as="geometry" />
        </mxCell>
        <mxCell id="pzHLP5PFSMqDfCKK6MuQ-37" value="" style="edgeStyle=orthogonalEdgeStyle;rounded=0;orthogonalLoop=1;jettySize=auto;html=1;strokeWidth=3;entryX=0.112;entryY=0.993;entryDx=0;entryDy=0;entryPerimeter=0;" edge="1" parent="1">
          <mxGeometry relative="1" as="geometry">
            <mxPoint x="1131" y="221.5" as="targetPoint" />
            <mxPoint x="1131.3" y="407" as="sourcePoint" />
          </mxGeometry>
        </mxCell>
        <mxCell id="pzHLP5PFSMqDfCKK6MuQ-38" value="bbg_enable" style="text;html=1;align=center;verticalAlign=middle;resizable=0;points=[];autosize=1;strokeColor=none;fillColor=none;" vertex="1" parent="1">
          <mxGeometry x="1050" y="314.5" width="90" height="30" as="geometry" />
        </mxCell>
        <mxCell id="pzHLP5PFSMqDfCKK6MuQ-39" value="last_in_frame" style="text;html=1;align=center;verticalAlign=middle;resizable=0;points=[];autosize=1;strokeColor=none;fillColor=none;" vertex="1" parent="1">
          <mxGeometry x="1132" y="314.5" width="100" height="30" as="geometry" />
        </mxCell>
        <mxCell id="pzHLP5PFSMqDfCKK6MuQ-40" value="&lt;span style=&quot;text-wrap-mode: wrap;&quot;&gt;[10:0]width&lt;/span&gt;" style="text;html=1;align=center;verticalAlign=middle;resizable=0;points=[];autosize=1;strokeColor=none;fillColor=none;" vertex="1" parent="1">
          <mxGeometry x="1244.5" y="313" width="80" height="30" as="geometry" />
        </mxCell>
        <mxCell id="pzHLP5PFSMqDfCKK6MuQ-41" value="&lt;span style=&quot;text-wrap-mode: wrap;&quot;&gt;[9:0]height&lt;/span&gt;" style="text;html=1;align=center;verticalAlign=middle;resizable=0;points=[];autosize=1;strokeColor=none;fillColor=none;" vertex="1" parent="1">
          <mxGeometry x="1334" y="313" width="80" height="30" as="geometry" />
        </mxCell>
        <mxCell id="pzHLP5PFSMqDfCKK6MuQ-42" value="" style="edgeStyle=orthogonalEdgeStyle;rounded=0;orthogonalLoop=1;jettySize=auto;html=1;strokeWidth=3;entryX=0.112;entryY=0.993;entryDx=0;entryDy=0;entryPerimeter=0;" edge="1" parent="1">
          <mxGeometry relative="1" as="geometry">
            <mxPoint x="1221.5" y="221.5" as="targetPoint" />
            <mxPoint x="1221.8" y="407" as="sourcePoint" />
          </mxGeometry>
        </mxCell>
        <mxCell id="pzHLP5PFSMqDfCKK6MuQ-43" value="" style="edgeStyle=orthogonalEdgeStyle;rounded=0;orthogonalLoop=1;jettySize=auto;html=1;strokeWidth=3;entryX=0.112;entryY=0.993;entryDx=0;entryDy=0;entryPerimeter=0;" edge="1" parent="1">
          <mxGeometry relative="1" as="geometry">
            <mxPoint x="1317.5900000000001" y="221.5" as="targetPoint" />
            <mxPoint x="1317.8899999999999" y="407" as="sourcePoint" />
          </mxGeometry>
        </mxCell>
        <mxCell id="pzHLP5PFSMqDfCKK6MuQ-44" value="" style="edgeStyle=orthogonalEdgeStyle;rounded=0;orthogonalLoop=1;jettySize=auto;html=1;strokeWidth=3;entryX=0.112;entryY=0.993;entryDx=0;entryDy=0;entryPerimeter=0;" edge="1" parent="1">
          <mxGeometry relative="1" as="geometry">
            <mxPoint x="1411" y="221.5" as="targetPoint" />
            <mxPoint x="1411.3" y="407" as="sourcePoint" />
          </mxGeometry>
        </mxCell>
        <mxCell id="pzHLP5PFSMqDfCKK6MuQ-46" value="motion_detected" style="text;html=1;align=center;verticalAlign=middle;resizable=0;points=[];autosize=1;strokeColor=none;fillColor=none;" vertex="1" parent="1">
          <mxGeometry x="941" y="85.5" width="110" height="30" as="geometry" />
        </mxCell>
        <mxCell id="pzHLP5PFSMqDfCKK6MuQ-47" value="" style="edgeStyle=orthogonalEdgeStyle;rounded=0;orthogonalLoop=1;jettySize=auto;html=1;strokeWidth=3;" edge="1" parent="1">
          <mxGeometry relative="1" as="geometry">
            <mxPoint x="1600" y="20.05000000000001" as="targetPoint" />
            <mxPoint x="1438" y="20" as="sourcePoint" />
            <Array as="points">
              <mxPoint x="1487" y="19.999999999999545" />
            </Array>
          </mxGeometry>
        </mxCell>
        <mxCell id="pzHLP5PFSMqDfCKK6MuQ-48" value="&lt;span style=&quot;text-wrap-mode: wrap;&quot;&gt;bbox_valid&lt;/span&gt;" style="text;html=1;align=center;verticalAlign=middle;resizable=0;points=[];autosize=1;strokeColor=none;fillColor=none;" vertex="1" parent="1">
          <mxGeometry x="1470" y="-10" width="80" height="30" as="geometry" />
        </mxCell>
        <mxCell id="pzHLP5PFSMqDfCKK6MuQ-49" value="" style="edgeStyle=orthogonalEdgeStyle;rounded=0;orthogonalLoop=1;jettySize=auto;html=1;strokeWidth=3;" edge="1" parent="1">
          <mxGeometry relative="1" as="geometry">
            <mxPoint x="1600" y="58.55000000000001" as="targetPoint" />
            <mxPoint x="1438" y="58.5" as="sourcePoint" />
            <Array as="points">
              <mxPoint x="1487" y="58.499999999999545" />
            </Array>
          </mxGeometry>
        </mxCell>
        <mxCell id="pzHLP5PFSMqDfCKK6MuQ-50" value="&lt;span style=&quot;text-wrap-mode: wrap;&quot;&gt;[5:0]bbox_label&lt;/span&gt;" style="text;html=1;align=center;verticalAlign=middle;resizable=0;points=[];autosize=1;strokeColor=none;fillColor=none;" vertex="1" parent="1">
          <mxGeometry x="1460" y="28.5" width="100" height="30" as="geometry" />
        </mxCell>
        <mxCell id="pzHLP5PFSMqDfCKK6MuQ-51" value="" style="edgeStyle=orthogonalEdgeStyle;rounded=0;orthogonalLoop=1;jettySize=auto;html=1;strokeWidth=3;" edge="1" parent="1">
          <mxGeometry relative="1" as="geometry">
            <mxPoint x="1600" y="94.05000000000001" as="targetPoint" />
            <mxPoint x="1438" y="94" as="sourcePoint" />
            <Array as="points">
              <mxPoint x="1487" y="93.99999999999955" />
            </Array>
          </mxGeometry>
        </mxCell>
        <mxCell id="pzHLP5PFSMqDfCKK6MuQ-52" value="&lt;span style=&quot;text-wrap-mode: wrap;&quot;&gt;[10:0]bbox_min_x&lt;/span&gt;" style="text;html=1;align=center;verticalAlign=middle;resizable=0;points=[];autosize=1;strokeColor=none;fillColor=none;" vertex="1" parent="1">
          <mxGeometry x="1450" y="64" width="120" height="30" as="geometry" />
        </mxCell>
        <mxCell id="pzHLP5PFSMqDfCKK6MuQ-53" value="" style="edgeStyle=orthogonalEdgeStyle;rounded=0;orthogonalLoop=1;jettySize=auto;html=1;strokeWidth=3;" edge="1" parent="1">
          <mxGeometry relative="1" as="geometry">
            <mxPoint x="1600" y="131.05" as="targetPoint" />
            <mxPoint x="1438" y="131" as="sourcePoint" />
            <Array as="points">
              <mxPoint x="1487" y="130.99999999999955" />
            </Array>
          </mxGeometry>
        </mxCell>
        <mxCell id="pzHLP5PFSMqDfCKK6MuQ-54" value="&lt;span style=&quot;text-wrap-mode: wrap;&quot;&gt;[9:0]bbox_min_y&lt;/span&gt;" style="text;html=1;align=center;verticalAlign=middle;resizable=0;points=[];autosize=1;strokeColor=none;fillColor=none;" vertex="1" parent="1">
          <mxGeometry x="1455" y="101" width="110" height="30" as="geometry" />
        </mxCell>
        <mxCell id="pzHLP5PFSMqDfCKK6MuQ-56" value="" style="edgeStyle=orthogonalEdgeStyle;rounded=0;orthogonalLoop=1;jettySize=auto;html=1;strokeWidth=3;" edge="1" parent="1">
          <mxGeometry relative="1" as="geometry">
            <mxPoint x="1600" y="168.55" as="targetPoint" />
            <mxPoint x="1438" y="168.5" as="sourcePoint" />
            <Array as="points">
              <mxPoint x="1487" y="168.49999999999955" />
            </Array>
          </mxGeometry>
        </mxCell>
        <mxCell id="pzHLP5PFSMqDfCKK6MuQ-57" value="&lt;span style=&quot;text-wrap-mode: wrap;&quot;&gt;[10:0]bbox_max_x&lt;/span&gt;" style="text;html=1;align=center;verticalAlign=middle;resizable=0;points=[];autosize=1;strokeColor=none;fillColor=none;" vertex="1" parent="1">
          <mxGeometry x="1450" y="138.5" width="120" height="30" as="geometry" />
        </mxCell>
        <mxCell id="pzHLP5PFSMqDfCKK6MuQ-58" value="" style="edgeStyle=orthogonalEdgeStyle;rounded=0;orthogonalLoop=1;jettySize=auto;html=1;strokeWidth=3;" edge="1" parent="1">
          <mxGeometry relative="1" as="geometry">
            <mxPoint x="1600" y="201.55" as="targetPoint" />
            <mxPoint x="1438" y="201.5" as="sourcePoint" />
            <Array as="points">
              <mxPoint x="1487" y="201.49999999999955" />
            </Array>
          </mxGeometry>
        </mxCell>
        <mxCell id="pzHLP5PFSMqDfCKK6MuQ-59" value="&lt;span style=&quot;text-wrap-mode: wrap;&quot;&gt;[9:0]bbox_max_y&lt;/span&gt;" style="text;html=1;align=center;verticalAlign=middle;resizable=0;points=[];autosize=1;strokeColor=none;fillColor=none;" vertex="1" parent="1">
          <mxGeometry x="1455" y="171.5" width="110" height="30" as="geometry" />
        </mxCell>
        <mxCell id="pzHLP5PFSMqDfCKK6MuQ-60" value="&lt;span style=&quot;font-size: 24px;&quot;&gt;Highlight&lt;/span&gt;&lt;div&gt;&lt;span style=&quot;font-size: 24px;&quot;&gt;Motion&lt;/span&gt;&lt;/div&gt;" style="rounded=0;whiteSpace=wrap;html=1;" vertex="1" parent="1">
          <mxGeometry x="1600" y="7" width="358" height="210" as="geometry" />
        </mxCell>
        <mxCell id="pzHLP5PFSMqDfCKK6MuQ-61" value="" style="edgeStyle=orthogonalEdgeStyle;rounded=0;orthogonalLoop=1;jettySize=auto;html=1;strokeWidth=3;" edge="1" parent="1">
          <mxGeometry relative="1" as="geometry">
            <mxPoint x="2120" y="117.40000000000002" as="targetPoint" />
            <mxPoint x="1958" y="117.35000000000001" as="sourcePoint" />
            <Array as="points">
              <mxPoint x="2007" y="117.34999999999955" />
            </Array>
          </mxGeometry>
        </mxCell>
        <mxCell id="pzHLP5PFSMqDfCKK6MuQ-62" value="[31:0]highlighted_pixel" style="text;html=1;align=center;verticalAlign=middle;whiteSpace=wrap;rounded=0;" vertex="1" parent="1">
          <mxGeometry x="1998" y="86.5" width="70" height="30" as="geometry" />
        </mxCell>
        <mxCell id="pzHLP5PFSMqDfCKK6MuQ-63" value="" style="edgeStyle=orthogonalEdgeStyle;rounded=0;orthogonalLoop=1;jettySize=auto;html=1;strokeWidth=3;entryX=0.112;entryY=0.993;entryDx=0;entryDy=0;entryPerimeter=0;" edge="1" parent="1">
          <mxGeometry relative="1" as="geometry">
            <mxPoint x="1651" y="220" as="targetPoint" />
            <mxPoint x="1651.3" y="405.5" as="sourcePoint" />
          </mxGeometry>
        </mxCell>
        <mxCell id="pzHLP5PFSMqDfCKK6MuQ-64" value="bbg_enable" style="text;html=1;align=center;verticalAlign=middle;resizable=0;points=[];autosize=1;strokeColor=none;fillColor=none;" vertex="1" parent="1">
          <mxGeometry x="1570" y="313" width="90" height="30" as="geometry" />
        </mxCell>
        <mxCell id="pzHLP5PFSMqDfCKK6MuQ-65" value="last_in_frame" style="text;html=1;align=center;verticalAlign=middle;resizable=0;points=[];autosize=1;strokeColor=none;fillColor=none;" vertex="1" parent="1">
          <mxGeometry x="1652" y="313" width="100" height="30" as="geometry" />
        </mxCell>
        <mxCell id="pzHLP5PFSMqDfCKK6MuQ-66" value="&lt;span style=&quot;text-wrap-mode: wrap;&quot;&gt;[10:0]width&lt;/span&gt;" style="text;html=1;align=center;verticalAlign=middle;resizable=0;points=[];autosize=1;strokeColor=none;fillColor=none;" vertex="1" parent="1">
          <mxGeometry x="1764.5" y="311.5" width="80" height="30" as="geometry" />
        </mxCell>
        <mxCell id="pzHLP5PFSMqDfCKK6MuQ-67" value="&lt;span style=&quot;text-wrap-mode: wrap;&quot;&gt;[9:0]height&lt;/span&gt;" style="text;html=1;align=center;verticalAlign=middle;resizable=0;points=[];autosize=1;strokeColor=none;fillColor=none;" vertex="1" parent="1">
          <mxGeometry x="1854" y="311.5" width="80" height="30" as="geometry" />
        </mxCell>
        <mxCell id="pzHLP5PFSMqDfCKK6MuQ-68" value="" style="edgeStyle=orthogonalEdgeStyle;rounded=0;orthogonalLoop=1;jettySize=auto;html=1;strokeWidth=3;entryX=0.112;entryY=0.993;entryDx=0;entryDy=0;entryPerimeter=0;" edge="1" parent="1">
          <mxGeometry relative="1" as="geometry">
            <mxPoint x="1741.5" y="220" as="targetPoint" />
            <mxPoint x="1741.8" y="405.5" as="sourcePoint" />
          </mxGeometry>
        </mxCell>
        <mxCell id="pzHLP5PFSMqDfCKK6MuQ-69" value="" style="edgeStyle=orthogonalEdgeStyle;rounded=0;orthogonalLoop=1;jettySize=auto;html=1;strokeWidth=3;entryX=0.112;entryY=0.993;entryDx=0;entryDy=0;entryPerimeter=0;" edge="1" parent="1">
          <mxGeometry relative="1" as="geometry">
            <mxPoint x="1837.5900000000001" y="220" as="targetPoint" />
            <mxPoint x="1837.8899999999999" y="405.5" as="sourcePoint" />
          </mxGeometry>
        </mxCell>
        <mxCell id="pzHLP5PFSMqDfCKK6MuQ-70" value="" style="edgeStyle=orthogonalEdgeStyle;rounded=0;orthogonalLoop=1;jettySize=auto;html=1;strokeWidth=3;entryX=0.112;entryY=0.993;entryDx=0;entryDy=0;entryPerimeter=0;" edge="1" parent="1">
          <mxGeometry relative="1" as="geometry">
            <mxPoint x="1931" y="220" as="targetPoint" />
            <mxPoint x="1931.3000000000002" y="405.5" as="sourcePoint" />
          </mxGeometry>
        </mxCell>
        <mxCell id="pzHLP5PFSMqDfCKK6MuQ-71" value="" style="endArrow=classic;startArrow=classic;html=1;rounded=0;exitX=0.5;exitY=1;exitDx=0;exitDy=0;strokeWidth=3;" edge="1" parent="1">
          <mxGeometry width="50" height="50" relative="1" as="geometry">
            <mxPoint x="305.33" y="202.5" as="sourcePoint" />
            <mxPoint x="305" y="403" as="targetPoint" />
          </mxGeometry>
        </mxCell>
      </root>
    </mxGraphModel>
  </diagram>
</mxfile>
